<?xml version="1.0" encoding="utf-8"?>
<!-- Generator: Adobe Illustrator 26.0.1, SVG Export Plug-In . SVG Version: 6.00 Build 0)  -->
<svg version="1.1" id="Layer_1" xmlns="http://www.w3.org/2000/svg" xmlns:xlink="http://www.w3.org/1999/xlink" x="0px" y="0px"
	 viewBox="0 0 1417.32 1417.32" style="enable-background:new 0 0 1417.32 1417.32;" xml:space="preserve">
<style type="text/css">
	.st0{fill:#08AA8A;}
</style>
<g>
	<g>
		<g>
			<path class="st0" d="M613.58,730.02l-20.14,21.36v55.42h-30.89V624.21h30.89v88.22l17.09-21.12l56.51-67.1h37.36l-70.55,83.59
				l69.83,99.01h-36.62L613.58,730.02z"/>
			<path class="st0" d="M719.35,640.41c0-4.56,1.44-8.34,4.33-11.35c2.89-3.01,7.02-4.52,12.39-4.52c5.37,0,9.52,1.51,12.45,4.52
				c2.93,3.01,4.39,6.8,4.39,11.35c0,4.48-1.46,8.2-4.39,11.17c-2.93,2.97-7.08,4.46-12.45,4.46c-5.37,0-9.5-1.48-12.39-4.46
				C720.79,648.61,719.35,644.89,719.35,640.41z M750.85,806.81h-29.67V674.72h29.67V806.81z"/>
			<path class="st0" d="M767.19,739.54c0-9.6,1.4-18.5,4.21-26.67c2.81-8.18,6.84-15.28,12.09-21.3
				c5.25-6.02,11.66-10.74,19.23-14.16s16.15-5.13,25.76-5.13c9.68,0,18.35,1.71,26,5.13c7.65,3.42,14.1,8.14,19.35,14.16
				c5.25,6.02,9.26,13.12,12.02,21.3c2.77,8.18,4.15,17.07,4.15,26.67v2.56c0,9.6-1.38,18.52-4.15,26.74
				c-2.77,8.22-6.78,15.32-12.02,21.3c-5.25,5.98-11.68,10.66-19.29,14.04c-7.61,3.38-16.22,5.07-25.82,5.07
				c-9.69,0-18.33-1.69-25.94-5.07c-7.61-3.38-14.04-8.06-19.29-14.04c-5.25-5.98-9.28-13.08-12.09-21.3
				c-2.81-8.22-4.21-17.13-4.21-26.74V739.54z M796.86,742.1c0,5.94,0.61,11.56,1.83,16.85c1.22,5.29,3.13,9.91,5.74,13.86
				c2.6,3.95,5.92,7.06,9.95,9.34c4.03,2.28,8.81,3.42,14.35,3.42c5.45,0,10.19-1.14,14.22-3.42c4.03-2.28,7.32-5.39,9.89-9.34
				c2.56-3.95,4.47-8.56,5.74-13.86c1.26-5.29,1.89-10.9,1.89-16.85v-2.56c0-5.86-0.63-11.42-1.89-16.66
				c-1.26-5.25-3.2-9.85-5.8-13.8c-2.61-3.95-5.92-7.1-9.95-9.46c-4.03-2.36-8.81-3.54-14.35-3.54c-5.54,0-10.28,1.18-14.22,3.54
				c-3.95,2.36-7.22,5.51-9.83,9.46c-2.61,3.95-4.52,8.55-5.74,13.8c-1.22,5.25-1.83,10.8-1.83,16.66V742.1z"/>
			<path class="st0" d="M987.76,770.92c0-2.11-0.35-4.09-1.04-5.92c-0.69-1.83-2.06-3.54-4.09-5.13c-2.04-1.59-4.9-3.07-8.61-4.46
				c-3.71-1.38-8.53-2.69-14.47-3.91c-7.08-1.46-13.53-3.3-19.35-5.49c-5.82-2.2-10.8-4.86-14.95-8c-4.15-3.13-7.39-6.82-9.71-11.05
				c-2.32-4.23-3.48-9.11-3.48-14.65c0-5.37,1.18-10.48,3.54-15.32c2.36-4.84,5.76-9.1,10.19-12.76c4.44-3.66,9.81-6.57,16.11-8.73
				c6.31-2.16,13.37-3.24,21.18-3.24c8.22,0,15.61,1.08,22.16,3.24c6.55,2.16,12.1,5.13,16.66,8.91c4.56,3.79,8.04,8.24,10.44,13.37
				c2.4,5.13,3.6,10.66,3.6,16.6h-29.67c0-2.52-0.49-4.98-1.46-7.39c-0.98-2.4-2.44-4.54-4.39-6.41c-1.95-1.87-4.38-3.36-7.26-4.46
				c-2.89-1.1-6.25-1.65-10.07-1.65c-3.74,0-7,0.47-9.77,1.4c-2.77,0.94-5.07,2.16-6.9,3.66c-1.83,1.51-3.2,3.26-4.09,5.25
				c-0.9,2-1.34,4.09-1.34,6.29c0,2.2,0.41,4.15,1.22,5.86c0.81,1.71,2.26,3.26,4.33,4.64c2.08,1.38,4.86,2.67,8.36,3.84
				c3.5,1.18,7.89,2.34,13.18,3.48c7.65,1.63,14.51,3.54,20.57,5.74c6.06,2.2,11.19,4.88,15.38,8.06c4.19,3.17,7.39,6.92,9.58,11.23
				c2.2,4.31,3.3,9.44,3.3,15.38c0,5.86-1.26,11.23-3.78,16.11c-2.52,4.88-6.12,9.09-10.8,12.64c-4.68,3.54-10.32,6.29-16.91,8.24
				c-6.59,1.95-13.92,2.93-21.97,2.93c-9.03,0-17.03-1.28-23.99-3.84c-6.96-2.56-12.8-5.92-17.52-10.07
				c-4.72-4.15-8.28-8.85-10.68-14.1c-2.4-5.25-3.6-10.6-3.6-16.05h28.81c0.24,4.07,1.18,7.49,2.81,10.25
				c1.63,2.77,3.7,5.01,6.23,6.71c2.52,1.71,5.37,2.95,8.55,3.72c3.17,0.77,6.43,1.16,9.77,1.16c7.81,0,13.75-1.48,17.82-4.46
				C985.72,779.6,987.76,775.72,987.76,770.92z"/>
			<path class="st0" d="M1077.53,750.16l-13.18,13.55v43.09h-29.67v-182.1h29.67v102.75l9.28-11.6l36.5-41.14h35.65l-49.08,55.06
				l54.33,77.03h-34.3L1077.53,750.16z"/>
		</g>
		<circle class="st0" cx="379.85" cy="664.19" r="14.18"/>
		<path class="st0" d="M333.04,806.17L333.04,806.17c-36.86,0-66.74-29.88-66.74-66.74v-64.36c0-36.86,29.88-66.74,66.74-66.74h0
			V806.17z"/>
		<path class="st0" d="M492.36,707.7h-66.72v-99.62h0c36.85,0,66.72,29.87,66.72,66.72V707.7z"/>
		<path class="st0" d="M492.68,782.19l-1.48,1.65c-25.54,28.56-66.95,28.56-92.48,0c-22.12-25.45-44.24-50.91-66.36-76.36
			c12.41-0.04,24.81-0.07,37.22-0.11h56.21L492.68,782.19z"/>
	</g>
</g>
</svg>
